Input #0, mov,mp4,m4a,3gp,3g2,mj2, from '/home/hbattu/projects/huberman-gpt/huberman-audio/mp3/tmplm__l2gk.mp4':
  Metadata:
    major_brand     : dash
    minor_version   : 0
    compatible_brands: iso6mp41
    creation_time   : 2023-03-17T02:55:25.000000Z
  Duration: 02:49:06.05, start: 0.000000, bitrate: 129 kb/s
    Stream #0:0(eng): Audio: aac (LC) (mp4a / 0x6134706D), 44100 Hz, stereo, fltp, 0 kb/s (default)
    Metadata:
      creation_time   : 2023-03-17T02:55:25.000000Z
      handler_name    : ISO Media file produced by Google Inc.
Stream mapping:
  Stream #0:0 -> #0:0 (aac (native) -> mp3 (libmp3lame))
Press [q] to stop, [?] for help
[graph_0_in_0_0 @ 0x5619891dae00] tb:1/44100 samplefmt:fltp samplerate:44100 chlayout:0x3
Output #0, mp3, to '../huberman-audio/mp3/7R3-3HR6-u4.mp3':
  Metadata:
    major_brand     : dash
    minor_version   : 0
    compatible_brands: iso6mp41
    TSSE            : Lavf58.29.100
    Stream #0:0(eng): Audio: mp3 (libmp3lame), 44100 Hz, stereo, fltp, delay 1105 (default)
    Metadata:
      creation_time   : 2023-03-17T02:55:25.000000Z
      handler_name    : ISO Media file produced by Google Inc.
      encoder         : Lavc58.54.100 libmp3lame
No more output streams to write to, finishing.
size=  158533kB time=02:49:06.06 bitrate= 128.0kbits/s speed=95.5x    
[AVIOContext @ 0x5619890c4900] Statistics: 0 seeks, 213 writeouts
video:0kB audio:158533kB subtitle:0kB other streams:0kB global headers:0kB muxing overhead: 0.000213%
Input file #0 (/home/hbattu/projects/huberman-gpt/huberman-audio/mp3/tmplm__l2gk.mp4):
  Input stream #0:0 (audio): 436954 packets read (162337026 bytes); 436954 frames decoded (447440896 samples); 
  Total: 436954 packets (162337026 bytes) demuxed
Output file #0 (../huberman-audio/mp3/7R3-3HR6-u4.mp3):
  Output stream #0:0 (audio): 388404 frames encoded (447440896 samples); 388405 packets muxed (162337436 bytes); 
  Total: 388405 packets (162337436 bytes) muxed
[AVIOContext @ 0x5619890f6040] Statistics: 2 seeks, 621 writeouts
[AVIOContext @ 0x5619890cd880] Statistics: 164203478 bytes read, 0 seeks
